<?xml version="1.0" encoding="UTF-8"?>
<svg id="Capa_1" data-name="Capa 1" xmlns="http://www.w3.org/2000/svg" viewBox="0 0 170.0787 29.2902">
  <defs>
    <style>
      .cls-1 {
        fill: #83ac72;
      }

      .cls-2 {
        fill: #f4dfb9;
      }
    </style>
  </defs>
  <path class="cls-1" d="M28.1037,18.0602c-2.3359,2.1204-5.4387,3.4159-8.8933,3.4159-3.5135,0-6.6559-1.2955-9.0102-3.4159H.0291c3.6121,6.6752,10.7402,11.23,19.1813,11.23,8.3823,0,15.4322-4.5548,19.024-11.23h-10.1307Z"/>
  <g>
    <path class="cls-2" d="M0,14.0925V.2683h2.022l4.6395,9.7914L11.3009.2683h2.022v13.8242h-2.0967V5.2311l-4.1179,8.8614h-.8944L2.1057,5.2311v8.8614H0Z"/>
    <path class="cls-2" d="M16.1261,2.1506V.0281h2.2454v2.1225h-2.2454ZM16.1261,14.0925V3.7244h2.2454v10.3681h-2.2454Z"/>
    <path class="cls-2" d="M21.1496,14.0925V3.7244h2.0031v1.152c.7366-.8923,1.8355-1.4494,3.2892-1.4494,3.7074,0,3.9594,3.6474,3.9594,4.8762v5.7894h-2.2733v-4.9921c0-1.2763-.2053-3.4951-2.348-3.4951-1.1457,0-2.3571.6437-2.3571,3.1586v5.3286h-2.2733Z"/>
    <path class="cls-2" d="M33.0154,2.1506V.0281h2.2454v2.1225h-2.2454ZM33.0154,14.0925V3.7244h2.2454v10.3681h-2.2454Z"/>
    <path class="cls-2" d="M37.4999,11.0875l2.2915-.3645c.2234,1.0263,1.0808,1.6505,2.3103,1.6505,1.0717,0,1.6959-.4706,1.6959-1.2386,0-.6996-.2891-.8727-2.5624-1.4969-2.5247-.6814-3.4093-1.4592-3.4093-3.0148,0-1.9396,1.5646-3.1865,3.9594-3.1865,2.3473,0,3.9874,1.1995,4.2387,3.0623l-2.2922.4217c-.1208-.8825-.8197-1.4103-1.9096-1.4774-1.0529-.0489-1.7608.3742-1.7608,1.0654,0,.6046.391.835,2.7481,1.4494,2.4129.6437,3.2892,1.4592,3.2892,3.072,0,2.0834-1.5653,3.3499-4.1556,3.3499-2.487,0-4.1082-1.1995-4.4433-3.2927Z"/>
    <path class="cls-2" d="M54.0505,14.0925c-1.994.3938-4.0251.2109-4.8077-1.2763-.4657-.8937-.3819-1.7664-.3819-2.9575v-4.3204h-1.8258v-1.8139h1.8258V.8436h2.2363v2.8807h2.9533v1.8139h-2.9533v4.1864c0,.8253-.0377,1.469.2046,1.8628.4475.768,1.4906.7582,2.7488.5655v1.9396Z"/>
    <path class="cls-2" d="M55.1543,9.0236c0-3.3988,2.0401-5.5869,5.0025-5.5869,3.1209,0,4.9474,2.3808,4.6863,6.1148h-7.2856c.1773,1.7092,1.0717,2.6587,2.5994,2.6587,1.0997,0,1.9193-.5181,2.3571-1.4774l2.2175.6912c-.7736,1.8809-2.5065,2.9561-4.444,2.9561-3.056,0-5.1331-2.2077-5.1331-5.3565ZM57.6134,7.8046h4.9565c-.1955-1.6226-.9314-2.3431-2.3194-2.3431-1.5095,0-2.3759.8071-2.6371,2.3431Z"/>
    <path class="cls-2" d="M66.9356,14.0925V3.7244h1.9843v1.6603c.252-.451.5872-.8448,1.0061-1.1129.7457-.5278,1.7706-.6912,2.6741-.5474v2.1602c-.6053-.1732-1.4529-.1257-2.0778.25-.9223.5181-1.3321,1.4871-1.3321,2.688v5.2699h-2.2545Z"/>
    <path class="cls-2" d="M74.5599,2.1506V.0281h2.2454v2.1225h-2.2454ZM74.5599,14.0925V3.7244h2.2454v10.3681h-2.2454Z"/>
    <path class="cls-2" d="M79.0437,8.9091c0-3.255,2.031-5.4724,5.0032-5.4724,3.0371,0,5.0214,2.2649,5.0214,5.4724,0,3.234-2.0122,5.471-5.0214,5.471-3.0281,0-5.0032-2.2649-5.0032-5.471ZM86.693,8.9091c0-2.0066-.8853-3.3038-2.6461-3.3038-1.8076,0-2.6273,1.3447-2.6273,3.3038,0,2.015.8944,3.301,2.6273,3.301,1.7797,0,2.6461-1.3531,2.6461-3.301Z"/>
    <path class="cls-2" d="M94.2935,8.9091c0-3.1502,1.8258-5.4724,4.6765-5.4724,1.0061,0,1.8355.2877,2.5065.7959V.2683h2.2635v13.8242h-1.9843v-.768c-.7177.6717-1.6771,1.0557-2.8696,1.0557-2.7858,0-4.5927-2.3613-4.5927-5.471ZM101.7558,8.9091c0-2.0262-.7359-3.3988-2.4507-3.3988-1.8069,0-2.6364,1.5165-2.6364,3.3988,0,1.9005.8106,3.3974,2.5624,3.3974,1.8069,0,2.5247-1.3922,2.5247-3.3974Z"/>
    <path class="cls-2" d="M105.7956,9.0236c0-3.3988,2.0408-5.5869,5.0032-5.5869,3.1209,0,4.9474,2.3808,4.6863,6.1148h-7.2856c.1773,1.7092,1.0717,2.6587,2.5994,2.6587,1.0997,0,1.9193-.5181,2.3571-1.4774l2.2175.6912c-.7736,1.8809-2.5065,2.9561-4.444,2.9561-3.056,0-5.1338-2.2077-5.1338-5.3565ZM108.2553,7.8046h4.9565c-.1955-1.6226-.9314-2.3431-2.3194-2.3431-1.5095,0-2.3759.8071-2.6371,2.3431Z"/>
    <path class="cls-2" d="M120.7187,10.0025l2.3292-.3645c.3917,1.6421,1.7427,2.5721,3.3639,2.5721,1.4341,0,2.776-.7094,2.776-1.9871,0-.768-.4755-1.2763-1.4906-1.5933l-3.4658-1.0557c-1.1925-.3547-2.9904-1.0948-2.9904-3.5328C121.2409,1.3728,123.4116-.0193,126.1416.0002c2.7572.0279,4.6953,1.4774,5.2916,4.0411l-2.4129.4315c-.2891-1.4592-1.5283-2.2747-2.9073-2.3138-1.3412-.0279-2.5149.6912-2.5149,1.7664,0,1.0277,1.034,1.402,1.9375,1.6519l2.4039.6912c1.3042.3645,3.5964,1.0557,3.5964,3.801,0,2.871-2.5065,4.3106-5.2644,4.3106-2.9345,0-5.1331-1.6603-5.5527-4.3777Z"/>
    <path class="cls-2" d="M133.0041,11.2509c0-1.5067.6982-2.5344,2.2915-3.1014,1.0619-.3547,2.6182-.5753,4.3791-.8448-.0838-1.1897-.6898-1.7469-2.059-1.7469-.9042,0-1.8635.3938-2.1986,1.4494l-2.0499-.6619c.4936-1.7469,1.8816-2.9087,4.2485-2.9087,1.7888,0,3.2138.5572,3.8757,1.9298.354.7289.3819,1.4676.3819,2.3613v6.3647h-1.9661v-1.3922c-.8567,1.152-1.9284,1.6798-3.5308,1.6798-2.1895,0-3.3723-1.4201-3.3723-3.1293ZM139.4225,10.8194c.1864-.4706.2143-1.1241.2241-1.6128-1.603.2583-2.5156.4022-3.2235.6521-.7736.2974-1.2204.6912-1.2204,1.3629,0,.7596.5586,1.3154,1.6205,1.3154,1.5283,0,2.3759-.9984,2.5994-1.7176Z"/>
    <path class="cls-2" d="M144.4872,14.0925V.2683h2.2454v13.8242h-2.2454Z"/>
    <path class="cls-2" d="M149.3439,9.5138V3.7244h2.2733v4.9921c0,1.2763.2053,3.4938,2.348,3.4938,1.1457,0,2.3571-.6423,2.3571-3.1572V3.7244h2.2545v10.3681h-1.9843v-1.152c-.7359.8923-1.8355,1.4494-3.2892,1.4494-3.7074,0-3.9594-3.6474-3.9594-4.8762Z"/>
    <path class="cls-2" d="M160.6315,8.9091c0-3.1502,1.8265-5.4724,4.6772-5.4724,1.0061,0,1.8355.2877,2.5065.7959V.2683h2.2635v13.8242h-1.9843v-.768c-.7177.6717-1.6771,1.0557-2.8696,1.0557-2.7858,0-4.5934-2.3613-4.5934-5.471ZM168.0945,8.9091c0-2.0262-.7359-3.3988-2.4507-3.3988-1.8069,0-2.6364,1.5165-2.6364,3.3988,0,1.9005.8106,3.3974,2.5624,3.3974,1.8069,0,2.5247-1.3922,2.5247-3.3974Z"/>
  </g>
</svg>