<?xml version="1.0" encoding="UTF-8"?>
<svg id="Capa_1" data-name="Capa 1" xmlns="http://www.w3.org/2000/svg" viewBox="0 0 170.0787 72.4439">
  <defs>
    <style>
      .cls-1 {
        fill: #f4dfb9;
      }
    </style>
  </defs>
  <g>
    <path class="cls-1" d="M74.0935,25.6194c0-3.485,1.9741-5.687,5.034-5.687,2.4449,0,3.9407,1.2224,4.5101,3.1889l-1.3667.2809c-.4632-1.3212-1.5185-2.1716-3.0751-2.1791-2.4448-.0152-3.6521,1.7767-3.6673,4.3962-.0152,2.6195,1.2224,4.3886,3.6673,4.4038,2.1108.0151,3.2042-1.268,3.3712-3.4471h-2.3234v-1.1161h3.7508c.0228.2126.0304.5543.0304.6454,0,2.9991-1.7008,5.2086-4.8973,5.2086-3.0143,0-5.034-2.1715-5.034-5.6945Z"/>
    <path class="cls-1" d="M84.7838,26.9785c0-2.5739,1.5413-4.3202,3.9482-4.3202,2.46,0,3.9558,1.7843,3.9558,4.3202,0,2.5739-1.5185,4.3354-3.9558,4.3354-2.4524,0-3.9482-1.7918-3.9482-4.3354ZM91.2528,26.9785c0-1.845-.8428-3.0371-2.5208-3.0371-1.7159,0-2.5132,1.2452-2.5132,3.0371,0,1.8526.858,3.0523,2.5132,3.0523,1.6932,0,2.5208-1.2452,2.5208-3.0523Z"/>
    <path class="cls-1" d="M94.0466,31.0861v-10.9335h1.3591v3.4775c.5847-.615,1.3971-.9719,2.4221-.9719,2.2777,0,3.6673,1.8602,3.6673,4.3202s-1.3818,4.3354-3.675,4.3354c-1.1084,0-1.9665-.4327-2.5662-1.1541v.9263h-1.2073ZM100.06,26.9785c0-1.7311-.7744-3.0826-2.4449-3.0826-1.602,0-2.3612,1.268-2.3612,3.0826,0,1.7995.744,3.0978,2.3992,3.0978,1.6173,0,2.4069-1.3515,2.4069-3.0978Z"/>
    <path class="cls-1" d="M103.0135,21.4358v-1.3971h1.3515v1.3971h-1.3515ZM103.0135,31.0861v-8.2001h1.3515v8.2001h-1.3515Z"/>
    <path class="cls-1" d="M105.8833,27.0392c0-2.6878,1.5641-4.3809,3.9482-4.3809,2.4677,0,3.9102,1.7918,3.7888,4.7074h-6.2867c.1063,1.7008.9869,2.6651,2.4979,2.6651,1.0781,0,1.8982-.5087,2.3537-1.4427l1.2983.448c-.6452,1.4502-2.0045,2.2777-3.5913,2.2777-2.4221,0-4.009-1.7083-4.009-4.2747ZM107.3563,26.2799h4.8593c-.1672-1.6097-.9491-2.4068-2.3386-2.4068-1.4653,0-2.3234.8504-2.5207,2.4068Z"/>
    <path class="cls-1" d="M115.0021,31.0861v-8.2001h1.2071v1.2983c.1822-.3189.4252-.5998.6986-.7972.6302-.5088,1.5944-.6606,2.3233-.5012v1.268c-.5694-.1442-1.3059-.1063-1.8753.3113-.7973.5694-.9946,1.5338-.9946,2.5056v4.1152h-1.3591Z"/>
    <path class="cls-1" d="M120.3623,31.0861v-8.2001h1.2148v1.0554c.6074-.8124,1.549-1.268,2.7334-1.268,2.6423,0,3.2648,2.3233,3.2648,3.8799v4.5329h-1.3666v-4.1077c0-1.5413-.4935-3.0219-2.2247-3.0219-1.3591,0-2.255.9111-2.255,2.8093v4.3203h-1.3668Z"/>
    <path class="cls-1" d="M128.7142,26.9785c0-2.5739,1.5413-4.3202,3.9482-4.3202,2.4601,0,3.9558,1.7843,3.9558,4.3202,0,2.5739-1.5185,4.3354-3.9558,4.3354-2.4524,0-3.9482-1.7918-3.9482-4.3354ZM135.1831,26.9785c0-1.845-.8427-3.0371-2.5207-3.0371-1.716,0-2.5132,1.2452-2.5132,3.0371,0,1.8526.8579,3.0523,2.5132,3.0523,1.6932,0,2.5207-1.2452,2.5207-3.0523Z"/>
    <path class="cls-1" d="M74.2454,42.6536c0-2.46,1.3894-4.3202,3.6673-4.3202,1.0251,0,1.8375.3568,2.4221.9719v-3.4775h1.3591v10.9335h-1.2073v-.9263c-.5998.7214-1.4578,1.1541-2.5663,1.1541-2.293,0-3.6749-1.8753-3.6749-4.3354ZM80.4866,42.6536c0-1.8147-.7592-3.0826-2.3613-3.0826-1.6704,0-2.4448,1.3515-2.4448,3.0826,0,1.7463.7896,3.0978,2.4069,3.0978,1.6552,0,2.3992-1.2983,2.3992-3.0978Z"/>
    <path class="cls-1" d="M83.0603,42.7143c0-2.6879,1.5641-4.3809,3.9482-4.3809,2.4677,0,3.9102,1.7918,3.7888,4.7074h-6.2868c.1063,1.7008.9871,2.6651,2.498,2.6651,1.0781,0,1.8982-.5087,2.3537-1.4426l1.2983.448c-.6452,1.4501-2.0044,2.2777-3.5913,2.2777-2.4221,0-4.009-1.7083-4.009-4.2747ZM84.5334,41.9551h4.8593c-.1672-1.6097-.9491-2.4069-2.3386-2.4069-1.4653,0-2.3233.8504-2.5207,2.4069Z"/>
    <path class="cls-1" d="M95.0641,46.7613v-10.9335h1.3515v10.9335h-1.3515Z"/>
    <path class="cls-1" d="M97.9341,44.5443c0-1.2908.7669-2.0425,2.012-2.4069,1.0251-.2734,2.4677-.4481,3.6825-.6151-.038-1.3059-.5997-1.9285-2.0196-1.9285-.9948,0-1.792.4327-2.0881,1.435l-1.2831-.3872c.3872-1.435,1.5338-2.3082,3.3863-2.3082,1.4806,0,2.5967.5315,3.0675,1.602.2277.5087.2657,1.1086.2657,1.7538v5.072h-1.1996v-1.2756c-.6531,1.0023-1.6705,1.5033-3.0371,1.5033-1.8375,0-2.7866-1.1236-2.7866-2.4447ZM103.4768,43.9672c.1138-.3947.129-.9187.1366-1.2908-1.1539.1519-2.2625.2809-3.0598.5087-.6757.2127-1.2756.5847-1.2756,1.3515,0,.6757.4784,1.3211,1.6477,1.3211,1.4578,0,2.3537-.8731,2.5512-1.8905Z"/>
    <path class="cls-1" d="M109.3611,46.7613v-10.9335h4.3202c.2125,0,.5239.0152.8049.0607,1.769.2733,2.7029,1.6476,2.7029,3.3863s-.9414,3.1131-2.7029,3.3863c-.2809.0457-.5999.0609-.8049.0609h-2.9688v4.0393h-1.3514ZM110.7125,41.4388h2.9233c.1898,0,.4555-.0152.6832-.0683,1.0478-.2354,1.4882-1.1845,1.4882-2.0957s-.4404-1.8602-1.4882-2.0955c-.2277-.0532-.4935-.0684-.6832-.0684h-2.9233v4.3278Z"/>
    <path class="cls-1" d="M118.4036,46.7613v-8.2001h1.2073v1.2983c.1822-.3189.4252-.5999.6986-.7972.6302-.5087,1.5944-.6606,2.3233-.5012v1.268c-.5694-.1442-1.3059-.1064-1.8753.3112-.7973.5694-.9946,1.5338-.9946,2.5056v4.1152h-1.3592Z"/>
    <path class="cls-1" d="M123.1641,42.6536c0-2.5739,1.5413-4.3202,3.9482-4.3202,2.46,0,3.9558,1.7843,3.9558,4.3202,0,2.5739-1.5185,4.3354-3.9558,4.3354-2.4524,0-3.9482-1.7918-3.9482-4.3354ZM129.6332,42.6536c0-1.845-.8428-3.0371-2.5209-3.0371-1.716,0-2.5132,1.2453-2.5132,3.0371,0,1.8527.8579,3.0523,2.5132,3.0523,1.6932,0,2.5209-1.2453,2.5209-3.0523Z"/>
    <path class="cls-1" d="M134.3481,46.7613l-2.9763-8.2001h1.3666l2.3007,6.4766,2.293-6.4766h1.3743l-2.9763,8.2001h-1.3818Z"/>
    <path class="cls-1" d="M139.921,37.111v-1.3971h1.3515v1.3971h-1.3515ZM139.921,46.7613v-8.2001h1.3515v8.2001h-1.3515Z"/>
    <path class="cls-1" d="M143.2389,46.7613v-8.2001h1.2148v1.0554c.6074-.8124,1.549-1.2679,2.7334-1.2679,2.6423,0,3.2648,2.3233,3.2648,3.8798v4.5329h-1.3666v-4.1077c0-1.5413-.4935-3.0219-2.2247-3.0219-1.3591,0-2.255.9111-2.255,2.8093v4.3202h-1.3668Z"/>
    <path class="cls-1" d="M151.5908,42.6611c.0228-2.5587,1.4578-4.3277,3.9255-4.3277,1.7235,0,3.0598.9111,3.4926,2.384l-1.3363.4024c-.3492-.949-1.1769-1.5033-2.1715-1.5033-1.6855,0-2.46,1.268-2.4752,3.0446.0152,1.8299.8428,3.0448,2.4752,3.0448,1.0631,0,1.7692-.5012,2.1412-1.435l1.3666.3569c-.577,1.5336-1.8146,2.3612-3.5078,2.3612-2.4979,0-3.8875-1.8146-3.9102-4.3279Z"/>
    <path class="cls-1" d="M160.1855,37.111v-1.3971h1.3515v1.3971h-1.3515ZM160.1855,46.7613v-8.2001h1.3515v8.2001h-1.3515Z"/>
    <path class="cls-1" d="M163.0555,44.5443c0-1.2908.7669-2.0425,2.012-2.4069,1.0251-.2734,2.4677-.4481,3.6825-.6151-.038-1.3059-.5997-1.9285-2.0197-1.9285-.9946,0-1.7918.4327-2.088,1.435l-1.2831-.3872c.3872-1.435,1.5338-2.3082,3.3863-2.3082,1.4806,0,2.5968.5315,3.0675,1.602.2277.5087.2657,1.1086.2657,1.7538v5.072h-1.1996v-1.2756c-.6531,1.0023-1.6705,1.5033-3.0371,1.5033-1.8375,0-2.7866-1.1236-2.7866-2.4447ZM168.5982,43.9672c.1138-.3947.129-.9187.1367-1.2908-1.1542.1519-2.2627.2809-3.06.5087-.6757.2127-1.2756.5847-1.2756,1.3515,0,.6757.4784,1.3211,1.6477,1.3211,1.4578,0,2.3537-.8731,2.5512-1.8905Z"/>
    <path class="cls-1" d="M74.2454,58.3286c0-2.46,1.3894-4.3202,3.6673-4.3202,1.0251,0,1.8375.3568,2.4221.9719v-3.4775h1.3591v10.9335h-1.2073v-.9263c-.5998.7214-1.4578,1.1541-2.5663,1.1541-2.293,0-3.6749-1.8753-3.6749-4.3354ZM80.4866,58.3286c0-1.8147-.7592-3.0826-2.3613-3.0826-1.6704,0-2.4448,1.3515-2.4448,3.0826,0,1.7463.7896,3.0978,2.4069,3.0978,1.6552,0,2.3992-1.2983,2.3992-3.0978Z"/>
    <path class="cls-1" d="M83.0603,58.3893c0-2.6879,1.5641-4.3809,3.9482-4.3809,2.4677,0,3.9102,1.7918,3.7888,4.7074h-6.2868c.1063,1.7008.9871,2.6651,2.498,2.6651,1.0781,0,1.8982-.5087,2.3537-1.4426l1.2983.448c-.6452,1.4501-2.0044,2.2777-3.5913,2.2777-2.4221,0-4.009-1.7083-4.009-4.2747ZM84.5334,57.6301h4.8593c-.1672-1.6097-.9491-2.4069-2.3386-2.4069-1.4653,0-2.3233.8504-2.5207,2.4069Z"/>
    <path class="cls-1" d="M92.3309,62.4363v-10.9335h1.3515v10.9335h-1.3515Z"/>
    <path class="cls-1" d="M98.3896,62.4363v-10.9335h1.3668l5.7022,8.5418v-8.5418h1.3666v10.9335h-1.3666l-5.7022-8.5494v8.5494h-1.3668Z"/>
    <path class="cls-1" d="M108.1916,58.3893c0-2.6879,1.5641-4.3809,3.9482-4.3809,2.4677,0,3.9102,1.7918,3.7888,4.7074h-6.2867c.1063,1.7008.9869,2.6651,2.4979,2.6651,1.0781,0,1.8982-.5087,2.3537-1.4426l1.2983.448c-.6454,1.4501-2.0045,2.2777-3.5913,2.2777-2.4221,0-4.009-1.7083-4.009-4.2747ZM109.6646,57.6301h4.8593c-.167-1.6097-.9491-2.4069-2.3386-2.4069-1.4653,0-2.3233.8504-2.5207,2.4069Z"/>
    <path class="cls-1" d="M117.1585,58.769v-4.5329h1.3666v4.1077c0,1.5413.4936,3.0219,2.2247,3.0219,1.3592,0,2.2551-.9111,2.2551-2.8093v-4.3202h1.3591v8.2001h-1.2073v-1.0554c-.6074.8124-1.5488,1.268-2.7334,1.268-2.6422,0-3.2648-2.3234-3.2648-3.8799Z"/>
    <path class="cls-1" d="M125.7305,58.3286c0-2.46,1.3895-4.3202,3.6673-4.3202,1.1161,0,1.9742.4252,2.5739,1.1464v-.9187h1.2073v11.8446h-1.3591v-4.4037c-.5847.6225-1.3971.9869-2.4146.9869-2.293,0-3.6748-1.8753-3.6748-4.3354ZM131.9716,58.3286c0-1.8147-.7592-3.0826-2.3612-3.0826-1.6705,0-2.4449,1.3515-2.4449,3.0826,0,1.7463.7896,3.0978,2.4069,3.0978,1.6551,0,2.3992-1.2983,2.3992-3.0978Z"/>
    <path class="cls-1" d="M134.8491,58.769v-4.5329h1.3668v4.1077c0,1.5413.4935,3.0219,2.2245,3.0219,1.3591,0,2.2551-.9111,2.2551-2.8093v-4.3202h1.3591v8.2001h-1.2073v-1.0554c-.6074.8124-1.5488,1.268-2.7334,1.268-2.6422,0-3.2648-2.3234-3.2648-3.8799Z"/>
    <path class="cls-1" d="M143.4211,58.3893c0-2.6879,1.5641-4.3809,3.9482-4.3809,2.4677,0,3.9102,1.7918,3.7888,4.7074h-6.2867c.1063,1.7008.9869,2.6651,2.4979,2.6651,1.0781,0,1.8982-.5087,2.3537-1.4426l1.2983.448c-.6452,1.4501-2.0045,2.2777-3.5913,2.2777-2.4221,0-4.009-1.7083-4.009-4.2747ZM144.8941,57.6301h4.8593c-.1672-1.6097-.9491-2.4069-2.3386-2.4069-1.4653,0-2.3234.8504-2.5207,2.4069ZM147.9767,50.4777h1.1009l-.9946,2.5056h-1.1009l.9946-2.5056Z"/>
    <path class="cls-1" d="M152.3045,62.4363v-8.2001h1.2148v1.0554c.6074-.8124,1.549-1.2679,2.7334-1.2679,2.6423,0,3.2648,2.3233,3.2648,3.8798v4.5329h-1.3666v-4.1077c0-1.5413-.4936-3.0219-2.2247-3.0219-1.3591,0-2.255.9111-2.255,2.8093v4.3202h-1.3668Z"/>
  </g>
  <g>
    <polygon class="cls-1" points="14.1114 41.7151 13.7595 42.7262 12.7396 43.0369 13.7517 43.3898 14.0625 44.4087 14.4142 43.3976 15.4332 43.0857 14.422 42.7339 14.1114 41.7151"/>
    <polygon class="cls-1" points="14.1368 37.6486 13.7851 38.6608 12.7652 38.9715 13.7773 39.3223 14.087 40.3422 14.4386 39.3312 15.4588 39.0204 14.4476 38.6686 14.1368 37.6486"/>
    <polygon class="cls-1" points="15.1401 33.8774 14.7882 34.8885 13.7685 35.1992 14.7795 35.551 15.0912 36.571 15.4431 35.5599 16.4619 35.248 15.451 34.8962 15.1401 33.8774"/>
    <polygon class="cls-1" points="16.5364 30.2515 16.1845 31.2626 15.1657 31.5734 16.1767 31.9252 16.4875 32.9451 16.8394 31.9329 17.8582 31.6222 16.847 31.2704 16.5364 30.2515"/>
    <polygon class="cls-1" points="19.1567 27.2872 18.806 28.2993 17.786 28.6101 18.797 28.9619 19.1078 29.9807 19.4606 28.9697 20.4797 28.6589 19.4685 28.3071 19.1567 27.2872"/>
    <polygon class="cls-1" points="22.1956 25.0098 21.8437 26.0208 20.8237 26.3316 21.8347 26.6834 22.1455 27.7022 22.4972 26.6912 23.5174 26.3804 22.505 26.0286 22.1956 25.0098"/>
    <polygon class="cls-1" points="25.4772 23.4171 25.1253 24.4282 24.1054 24.739 25.1177 25.0919 25.4283 26.1108 25.7802 25.0985 26.8002 24.7878 25.7878 24.436 25.4772 23.4171"/>
    <polygon class="cls-1" points="29.3972 22.4127 29.0453 23.4249 28.0253 23.7357 29.0375 24.0875 29.3474 25.1063 29.699 24.0953 30.719 23.7845 29.7069 23.4327 29.3972 22.4127"/>
    <polygon class="cls-1" points="48.6018 41.7151 48.2911 42.7339 47.2788 43.0857 48.299 43.3976 48.6507 44.4087 48.9615 43.3898 49.9724 43.0369 48.9537 42.7262 48.6018 41.7151"/>
    <polygon class="cls-1" points="48.6251 40.3422 48.9359 39.3223 49.9469 38.9715 48.9281 38.6608 48.5764 37.6486 48.2655 38.6686 47.2544 39.0204 48.2734 39.3312 48.6251 40.3422"/>
    <polygon class="cls-1" points="47.6219 36.571 47.9326 35.551 48.9437 35.1992 47.9238 34.8885 47.5731 33.8774 47.2622 34.8962 46.2501 35.248 47.2701 35.5599 47.6219 36.571"/>
    <polygon class="cls-1" points="47.5475 31.5734 46.5275 31.2626 46.1756 30.2515 45.865 31.2704 44.8538 31.6222 45.874 31.9329 46.2257 32.9451 46.5354 31.9252 47.5475 31.5734"/>
    <polygon class="cls-1" points="43.9061 28.2993 43.5553 27.2872 43.2447 28.3071 42.2324 28.6589 43.2525 28.9697 43.6042 29.9807 43.9151 28.9619 44.9272 28.6101 43.9061 28.2993"/>
    <polygon class="cls-1" points="40.5176 25.0098 40.207 26.0286 39.1958 26.3804 40.2149 26.6912 40.5665 27.7022 40.8774 26.6834 41.8883 26.3316 40.8695 26.0208 40.5176 25.0098"/>
    <polygon class="cls-1" points="37.236 23.4171 36.9242 24.436 35.913 24.7878 36.9318 25.0985 37.2837 26.1108 37.5955 25.0919 38.6066 24.739 37.5879 24.4282 37.236 23.4171"/>
    <polygon class="cls-1" points="33.316 22.4127 33.0051 23.4327 31.993 23.7845 33.013 24.0953 33.3649 25.1063 33.6757 24.0875 34.6867 23.7357 33.6679 23.4249 33.316 22.4127"/>
    <path class="cls-1" d="M60.1673,58.1315l-4.1038,2.0122c-.0565.0273-1.3931.6947-1.6742,1.9154l-.0302.134.1252.0546c.1736.0769.4107.1054.6699.1054.7381,0,1.6548-.232,1.7895-.268l4.4201-2.3608c.4324-.2791.4423-.8882.2034-1.2926-.2163-.3697-.7144-.6662-1.4-.3002Z"/>
    <path class="cls-1" d="M12.428,19.6091c1.3543-.7611,2.7813-.2026,4.2827.5244l12.3599-1.7527c.6383-.0905,1.4675-.1307,2.2857-.1222v-.0008c.7278-.0039,1.4565.0348,2.0111.1122l13.7631,1.9429c.9531-.0951,1.9066-.4424,2.841-1.342.1107-.1067.1252-.2792.0332-.403-.0911-.1237-.2606-.1593-.3952-.0843-1.5067.8477-3.1039.0603-4.7946-.7758-.0016-.0007-.0032-.0016-.0046-.0023-1.3057-.6443-2.6438-1.3048-3.9781-1.1935.8657-.9831,2.0443-1.308,3.275-1.646,1.6868-.4633,3.4318-.9421,4.3925-3.1426.0618-.1408.0092-.3055-.1229-.3852-.1324-.0789-.3025-.0472-.3976.0743-1.0691,1.3605-2.8488,1.2429-4.7314,1.1177-1.4532-.0959-2.9422-.1942-4.1326.42.4229-1.2399,1.3882-1.9909,2.3962-2.7745,1.3815-1.0736,2.8094-2.1842,2.8557-4.5843.003-.1539-.1091-.2862-.2615-.3087-.1515-.0224-.297.0719-.3388.2205-.4672,1.6661-2.1556,2.2384-3.9439,2.8433-1.3792.4672-2.7923.9467-3.6571,1.9693-.0835-1.308.5207-2.3707,1.1518-3.4799.8654-1.5206,1.7604-3.0931.8839-5.3284-.0563-.1431-.2103-.222-.3588-.1849-.1492.0379-.2474.1802-.2288.3326.2057,1.7187-1.1355,2.8936-2.5557,4.1366-1.096.9599-2.2181,1.9429-2.6251,3.2192-.5777-1.1765-.4261-2.3892-.2675-3.6554.2172-1.7365.4423-3.5317-1.2229-5.2619-.1061-.1106-.2786-.1253-.4022-.0333-.1238.0921-.1596.2614-.0844.3952.8486,1.509.0588,3.107-.778,4.8002-.6452,1.3048-1.305,2.6437-1.1936,3.978-.983-.8655-1.308-2.0443-1.646-3.2749-.4633-1.687-.942-3.4319-3.1426-4.3933-.1407-.0611-.3062-.0085-.3851.1238-.0789.1314-.047.3016.0736.3967,1.3612,1.0698,1.2436,2.8487,1.1184,4.7321-.0966,1.4525-.1942,2.9423.4199,4.1326-1.2397-.4239-1.991-1.3884-2.7743-2.3962-1.0737-1.3814-2.1845-2.81-4.5843-2.8556-.154-.0031-.2862.109-.3088.2606-.0224.1524.0719.2978.2198.3396,1.6668.4664,2.2384,2.1556,2.844,3.9439.4672,1.3791.9468,2.7922,1.9693,3.657-1.308.0827-2.3708-.5206-3.4798-1.1517-1.5208-.8655-3.0933-1.7611-5.3287-.8841-.143.0557-.2228.2096-.1847.3589.0378.1493.1801.2467.3325.229,1.7187-.2058,2.8936,1.1354,4.1365,2.5555.9591,1.0952,1.943,2.2183,3.2185,2.6252-1.1765.577-2.3892.4261-3.6545.2676-1.7364-.2181-3.5319-.4432-5.2621,1.2221-.1105.1068-.1245.2793-.0332.403.092.123.2615.1593.3952.0835Z"/>
    <path class="cls-1" d="M20.9844,68.8336l-.1872-.0774c.0012-.0005.0025-.001.0039-.0015l-3.1412-1.3115s-.975-.3692-1.3942-.4257c-1.1482-.1549-1.6084.0905-2.1328.3818-.2495.1385.0129.2914.0129.2914,0,0,3.9098,1.6616,4.0671,1.6904.2451.0737.4974.1405.663.16,1.1505.1362,1.6068-.1165,2.1264-.4163.247-.1426-.0178-.2912-.0178-.2912Z"/>
    <path class="cls-1" d="M13.6777,65.6724l-.1872-.0775c.0012-.0005.0025-.001.0039-.0014l-3.1412-1.3114s-.975-.3693-1.3942-.4259c-1.1482-.1548-1.6084.0905-2.1328.3819-.2495.1385.0129.2914.0129.2914,0,0,3.9098,1.6616,4.0671,1.6905.2451.0736.4974.1404.663.16,1.1505.1362,1.6068-.1166,2.1264-.4164.247-.1425-.0178-.2911-.0178-.2911Z"/>
    <path class="cls-1" d="M28.4176,71.6984l-.1872-.0774c.0016-.0007.0032-.0007.0039-.0015l-2.0134-.8408-.1896-.0789-.1902-.0797-.7478-.3125s-.9747-.369-1.394-.4254c-1.1486-.1547-1.6087.0905-2.1333.3821-.249.1384.0134.2908.0134.2908,0,0,3.9098,1.6622,4.0669,1.6908.092.0271.1849.0541.2744.0774.0719.0193.1416.0364.2059.051.068.014.1298.0255.1824.0318.0062.0007.0131.0015.0194.0023,1.1371.1307,1.5911-.1207,2.107-.4192.2474-.1423-.0178-.2908-.0178-.2908Z"/>
    <path class="cls-1" d="M8.2281,62.2476l.1254-.0546-.0304-.134c-.2811-1.2207-1.6177-1.8881-1.6742-1.9154l-4.1038-2.0122c-.6853-.366-1.1834-.0695-1.4.3002-.2387.4044-.229,1.0135.2034,1.2926l4.4201,2.3608c.1347.036,1.0513.268,1.7895.268.2594,0,.4963-.0285.6699-.1054Z"/>
    <path class="cls-1" d="M46.4468,67.0175c-.4192.0566-1.3942.4257-1.3942.4257l-3.1412,1.3115c.0014.0005.0028.001.0042.0015l-.1875.0774s-.2647.1487-.0178.2912c.5198.2998.9759.5526,2.1266.4163.1653-.0195.4176-.0864.6627-.16.1573-.0288,4.0671-1.6904,4.0671-1.6904,0,0,.2624-.1529.0131-.2914-.5246-.2913-.9847-.5367-2.133-.3818Z"/>
    <path class="cls-1" d="M53.7536,63.8562c-.4192.0566-1.3942.4259-1.3942.4259l-3.1412,1.3114c.0014.0005.0028.001.0042.0014l-.1875.0775s-.2647.1486-.0178.2911c.5198.2998.9759.5526,2.1266.4164.1653-.0196.4176-.0864.6627-.16.1573-.0289,4.0671-1.6905,4.0671-1.6905,0,0,.2624-.1529.0131-.2914-.5246-.2914-.9847-.5367-2.133-.3819Z"/>
    <path class="cls-1" d="M39.0132,69.8823c-.4192.0564-1.3937.4254-1.3937.4254l-.7481.3125-.1902.0797-.1896.0789-2.0134.8408c.0009.0007.0023.0007.0039.0015l-.187.0774s-.2654.1485-.018.2908c.5161.2986.9699.5499,2.107.4192.0062-.0008.0131-.0016.0194-.0023.0526-.0062.1144-.0178.1824-.0318.0643-.0146.134-.0317.2059-.051.0897-.0232.1824-.0503.2746-.0774.1568-.0286,4.0669-1.6908,4.0669-1.6908,0,0,.2622-.1524.0131-.2908-.5246-.2916-.9847-.5368-2.1333-.3821Z"/>
    <path class="cls-1" d="M62.3128,24.305c-.3784-.5627-.9699-.9267-1.6659-1.0255l-27.2797-3.8511c-.5539-.0788-1.2831-.1154-2.0113-.1132-.7278-.0022-1.456.0344-2.0108.1132l-27.28,3.8511c-.696.0988-1.2874.4628-1.6659,1.0255-.3784.5627-.4928,1.2485-.3219,1.9289l6.9943,27.8814,1.5605,6.2218c.3074,1.2286,1.4638,2.5726,2.6302,3.0631l13.1172,5.5071,1.5715.6603.1831.0777.1842.0766,1.0522.4417,1.9566.8213c.5193.2187,1.1719.3363,1.8379.3551h.0099c.0145.0012.03.0012.0457.0012.0443.0011.0897.0022.1342.0022h.0023c.0454,0,.0897-.0011.1351-.0022.0157,0,.03,0,.0457-.0012h.0088c.666-.0189,1.3186-.1365,1.8379-.3551l1.9569-.8213,1.052-.4417.1842-.0766.1831-.0777,1.5715-.6603,13.1172-5.5071c1.1666-.4905,2.3228-1.8345,2.6305-3.0631l1.5602-6.2218,6.9943-27.8814c.1709-.6803.0565-1.3662-.3219-1.9289ZM15.8571,63.0762l-.1842-.0811q0,.0012.0012.0022l-3.1131-1.3762s-.9388-.4528-1.2685-.718c-.9035-.7259-1.0421-1.2286-1.1908-1.8112-.0722-.2753.2198-.1909.2198-.1909,0,0,3.8967,1.6936,4.0253,1.788.223.1265.4451.2642.5726.3707.8913.7403,1.0211,1.2452,1.1611,1.829.0666.2775-.2232.1876-.2232.1876ZM23.0522,66.4967l-.1854-.0822c0,.0011.0012.0022.0012.0044l-3.1131-1.3773s-.939-.4528-1.2685-.7181c-.9023-.7258-1.0412-1.2297-1.1908-1.8102-.0722-.2763.2198-.1909.2198-.1909,0,0,3.8967,1.6925,4.0265,1.7869.2218.1276.4439.2642.5714.3707.8913.7414,1.0211,1.2463,1.162,1.829.0666.2786-.223.1876-.223.1876ZM26.2541,63.2016c-.7504-.5427-1.8111-.9922-2.96-1.4372,0,0-.2663-.1243-.3464-.1698-1.3338-.7269-2.5015-1.6492-3.204-3.0531-.2753-.5472-.5172-1.111-.7614-1.6748-.2098-.4839-.4206-.9666-.6547-1.4361-.2765-.5538-.3952-1.1143-.4208-1.6825-.021-.4739.0224-.9555.0978-1.4428.1144-.7447.2131-1.4916.2818-2.2418.0424-.4773.0046-.9622.0235-1.4417.0155-.3496.2396-.4927.547-.3196.2165.1231.413.323.5551.5316.3173.4694.3397,1.0222.3607,1.5693.0111.2863.0244.5715.0378.8568h-.0023l.0099,1.5915c-1.0843.4451.4197,2.6814.7114,3.072.2488.3673,1.18,1.505,1.414,1.6914.2209.242.3863.4128.4506.4817.0477.0466.11.0666.1709.0611.0457-.0044.0888-.0222.1243-.0577.0844-.0799.0856-.212.0055-.2952-1.4449-1.4883-2.2085-2.5793-2.5903-3.3029-.1054-.202-.1988-.3962-.2431-.5771-.1554-.6359.3874-.9145.99-.5261.0221.0156.0445.0311.0678.0466.1377.0955.2995.2032.4649.3618.7236.6948,1.5416,1.2674,2.2742,1.9544.526.4928.9967.9278,1.6848,1.2364.0044.0022,1.0264.3419,1.5259.4739.9113.2442,1.7869.5616,2.606.9933.1566.1265.4992.4118.5382.4218-.5481.5493-1.1154,1.3784-1.6469,2.4261-.4384.8668-.8368,1.85-1.1876,2.9166-.0655-.141-.1386-.2663-.223-.3751-.009-.01-.0178-.0222-.0279-.0333-.1787-.222-.4061-.4261-.6736-.6193ZM28.425,47.5417c-.2198.1155-1.2542.5638-1.7581-.5904l-.8345-1.6226c-.1141-.2209-.404-.3529-.6459-.2952l-3.4405.8346c-.2407.0577-.487.02-.547-.0865-.06-.1054.0521-.3152.2495-.4662l9.0718-6.8976.0101,20.0282c-.1487.1021-.3007.2286-.4552.3785v-12.155l-1.6502.8723ZM25.4083,56.557c-.0277.1054-1.1553-.788-1.578-1.2153-.0367-.0366-.1188-2.5582-.1533-3.6425-.0088-.2686.1799-.3995.4086-.2553.2108.1332.4483.3219.5327.5405.1776.4639.333.9589.3685,1.4505.0544.7247.0809,1.5926.2308,2.3817.0487.2586.1098.5072.1907.7402ZM23.4929,55.0454c-.4861-.4417-1.0356-.8812-1.4583-1.283-.0745-.0688-.0611-.2508-.0655-.354-.0445-1.1664-.0777-2.334-.1176-3.5004-.0125-.3863.1764-.5139.5281-.3385.3364.1698.5694.455.6471.8102.1211.5583.2142,1.1265.2597,1.6958.0745.9312.1554,1.9711.2066,2.97ZM21.4673,50.8468c.0533.828.1397,1.7347.181,2.6137-.4628-.3352-.7349-.5416-1.4927-.6615-.0035-.0322-.1033-3.0887-.1321-3.7124-.0224-.4595.2308-.6326.6238-.3873.2075.1321.3816.3496.5149.5638.2984.4817.2696,1.0444.3051,1.5838ZM35.3314,69.521l-.7036.2952c-.7248-5.4227-1.5572-7.8632-1.7925-7.8632-.1354,0,.3897.7203,1.3628,8.0442l-.8235.3451c-.5161.2176-1.1664.3352-1.828.3541.0122-1.2019.0111-2.3285.009-2.779,0-.1121-.0888-.2032-.1999-.2076-.1109.0044-.1985.0955-.1985.2076-.0021.4505-.0044,1.5771.009,2.779-.6616-.0189-1.313-.1365-1.8291-.3541l-.8235-.3451c.9734-7.3238,1.4994-8.0442,1.364-8.0442-.2352,0-1.0688,2.4406-1.7925,7.8632l-.7047-.2952-.9678-.4062c.0288-.1832.0588-.3652.0911-.5461.0189-.111.0399-.2209.06-.3318.0131-.0699.0256-.1399.0387-.2098.0224-.1165.0466-.2319.0699-.3474.0122-.0632.0244-.1265.0378-.1897.0233-.1121.0489-.2231.0733-.3341.0143-.0655.0277-.1321.0434-.1976.0231-.1032.0475-.2053.0719-.3074.0166-.0732.0346-.1476.0521-.2197.0224-.091.0457-.1809.0689-.2708.021-.0843.0422-.1698.0643-.253.0198-.0755.041-.1498.0611-.2253.0277-.0988.0542-.1976.0821-.2952.0166-.0577.0332-.1143.05-.1709.0332-.1166.0676-.2331.1031-.3474.3816-1.2475.829-2.3917,1.3308-3.3806.5804-1.1431,1.1332-1.9045,1.6103-2.3717.0445-.0433.0876-.0843.131-.1232.0265-.0233.0521-.0455.0777-.0666.324-.2719.6049-.4007.8255-.4184.2209.0178.5029.1465.8258.4184.0256.0211.0512.0433.0777.0666.0434.0389.0867.0799.131.1232.4773.4673,1.031,1.2286,1.6105,2.3717.5016.9889.9501,2.1331,1.3317,3.3806.0344.1143.0689.2308.1022.3474.0166.0566.0344.1132.0498.1709.0279.0977.0556.1965.0821.2952.0212.0755.041.1498.0611.2253.0224.0832.0434.1687.0655.253.0233.0899.0454.1798.0689.2708.0175.0721.0344.1465.0521.2197.0244.1022.0489.2043.0722.3074.0143.0655.0288.1321.0431.1976.0244.111.0489.222.0722.3341.0134.0632.0256.1265.039.1897.0233.1155.0466.2309.0687.3474.0134.0699.0256.1399.0387.2098.0201.111.041.2209.0611.3318.0311.1809.0611.3629.0899.5461l-.9678.4062ZM41.5134,45.7815c-.06.1065-.3062.1442-.5472.0865l-3.4405-.8346c-.2419-.0577-.5315.0744-.6459.2952l-.8345,1.6226c-.5039,1.1542-1.5383.7059-1.7581.5904l-1.6504-.8723v12.155c-.154-.1498-.3062-.2764-.455-.3785l.0101-20.0282,9.0718,6.8976c.1976.1509.3097.3607.2497.4662ZM41.5498,49.2631c.1333-.2142.3076-.4317.5152-.5638.3929-.2453.6459-.0722.6235.3873-.0286.6238-.1287,3.6803-.1319,3.7124-.758.1199-1.0299.3263-1.4929.6615.0413-.879.1278-1.7857.181-2.6137.0355-.5394.0067-1.1021.3051-1.5838ZM40.8608,49.908c-.0401,1.1664-.0733,2.334-.1176,3.5004-.0046.1033.0088.2853-.0655.354-.4229.4018-.9722.8413-1.4583,1.283.051-.9988.1319-2.0388.2064-2.97.0454-.5694.1386-1.1375.2597-1.6958.0777-.3551.3106-.6404.6471-.8102.3517-.1754.5405-.0477.5283.3385ZM39.0351,51.6992c-.0344,1.0843-.1167,3.6059-.1533,3.6425-.4227.4273-1.5503,1.3207-1.578,1.2153.0809-.233.142-.4817.1907-.7402.1499-.7891.1766-1.657.2311-2.3817.0355-.4916.1907-.9866.3685-1.4505.0842-.2187.3217-.4074.5327-.5405.2285-.1442.4172-.0133.4084.2553ZM36.4579,63.2016c-.2675.1931-.4949.3973-.6736.6193-.0101.0111-.0189.0233-.0277.0333-.0835.1088-.1577.2342-.2232.3751-.3496-1.0666-.7481-2.0499-1.1876-2.9166-.5304-1.0477-1.0986-1.8768-1.6458-2.4261.0376-.01.3816-.2952.5371-.4218.8191-.4317,1.6949-.7491,2.606-.9933.4995-.132,1.5215-.4716,1.5259-.4739.6881-.3085,1.1588-.7436,1.6848-1.2364.7326-.687,1.5506-1.2597,2.2742-1.9544.1653-.1587.3275-.2663.4649-.3618.0235-.0155.0457-.031.0678-.0466.6028-.3884,1.1454-.1099.99.5261-.0443.1809-.1377.3751-.2431.5771-.3816.7236-1.1454,1.8146-2.5903,3.3029-.0798.0832-.0789.2153.0055.2952.0355.0355.0789.0533.1243.0577.0611.0055.1231-.0144.1709-.0611.0646-.0688.2297-.2397.4506-.4817.2343-.1864,1.1655-1.324,1.414-1.6914.2919-.3907,1.7957-2.627.7114-3.072l.0099-1.5915h-.0023c.0134-.2853.0267-.5705.0378-.8568.0212-.5472.0434-1.0999.3607-1.5693.142-.2086.3385-.4084.5551-.5316.3074-.1731.5315-.03.5472.3196.0187.4795-.0189.9644.0233,1.4417.0687.7502.1674,1.4972.2818,2.2418.0754.4873.1188.9689.0978,1.4428-.0256.5683-.1444,1.1287-.4208,1.6825-.2341.4695-.4451.9523-.6547,1.4361-.2442.5638-.4861,1.1276-.7612,1.6748-.7026,1.4039-1.8702,2.3262-3.2042,3.0531-.08.0455-.3464.1698-.3464.1698-1.1486.4451-2.2096.8945-2.96,1.4372ZM44.2257,64.3236c-.3295.2652-1.2685.7181-1.2685.7181l-3.1131,1.3773c0-.0022.0012-.0033.0012-.0044l-.1854.0822s-.2896.091-.223-.1876c.1409-.5827.2707-1.0876,1.162-1.829.1278-.1065.3496-.2431.5714-.3707.1301-.0944,4.0267-1.7869,4.0267-1.7869,0,0,.2917-.0854.2195.1909-.1497.5805-.2885,1.0843-1.1908,1.8102ZM51.4197,60.9031c-.3295.2652-1.2685.718-1.2685.718l-3.1131,1.3762q.0012-.0011.0012-.0022l-.1842.0811s-.2896.0899-.2232-.1876c.14-.5838.2698-1.0887,1.1611-1.829.1275-.1065.3496-.2441.5726-.3707.1287-.0943,4.0253-1.788,4.0253-1.788,0,0,.2919-.0843.2198.1909-.1487.5827-.2873,1.0854-1.1908,1.8112ZM61.3516,25.9121l-7.0829,28.1-22.0769-17.3146v-3.9543l.062.0044.5094,1.4583c.0745.1709.2742.2508.4451.1765.1709-.0733.2509-.273.1776-.4451l-.4972-.9611,2.4474,1.657c.1607.0932.3694.0377.4626-.1232.0934-.1621.0367-.3696-.1231-.4639l-1.2208-.5938,2.8212,1.0011c.2896.0799.5917-.091.6727-.3807.08-.2897-.0911-.5915-.3807-.6725l-2.1021-.4251,1.3287.0944c.2995,0,.5461-.2464.5461-.5461,0-.3008-.2465-.5461-.5461-.5461l-3.1809.2253,2.243-.8002c.253-.253.2562-.6637.0076-.9123l-4.042-2.5104c-.1199-.1199-.2786-.1754-.4395-.1776v-.0055c-.0055,0-.0099.0033-.0155.0033-.0035,0-.0078-.0011-.0113-.0022-.0032.0011-.0065.0022-.0111.0022-.0055,0-.0099-.0033-.0155-.0033v.0055c-.161.0022-.3196.0577-.4395.1776l-4.042,2.5104c-.2486.2486-.2454.6593.0076.9123l2.243.8002-3.1807-.2253c-.2998,0-.5461.2453-.5461.5461,0,.2997.2463.5461.5461.5461l1.3285-.0944-2.1021.4251c-.2896.081-.4605.3829-.3807.6725.0812.2896.383.4606.6727.3807l2.8212-1.0011-1.2208.5938c-.1598.0943-.2165.3019-.1231.4639.0932.1609.3019.2164.4628.1232l2.4471-1.657-.4972.9611c-.0733.172.0067.3718.1776.4451.1709.0744.3708-.0055.4451-.1765l.5094-1.4583.062-.0044v3.9543l-22.0767,17.3146L1.3604,25.9121c-.0789-.313-.0311-.6215.1354-.869.1676-.2475.4351-.4084.7548-.4539l27.28-3.8511c.4949-.0699,1.1608-.1033,1.8254-.0999.665-.0033,1.3319.03,1.8259.0999l27.28,3.8511c.3196.0455.5871.2064.7545.4539.1665.2475.2142.556.1354.869Z"/>
    <path class="cls-1" d="M31.1562,66.4657c.0012.111.0888.2009.1997.2064.1111-.0055.1999-.0954.1999-.2064.0044-1.0932.0111-6.1386-.1999-6.6535-.2096.5149-.2029,5.5603-.1997,6.6535Z"/>
  </g>
</svg>