<?xml version="1.0" encoding="UTF-8"?>
<svg id="Capa_1" data-name="Capa 1" xmlns="http://www.w3.org/2000/svg" viewBox="0 0 170.0787 48.8792">
  <defs>
    <style>
      .cls-1 {
        fill: #f4dfb9;
      }
    </style>
  </defs>
  <path class="cls-1" d="M102.8631,41.7137c-1.4905,1.353-3.4703,2.1796-5.6745,2.1796-2.2419,0-4.2469-.8266-5.7491-2.1796h-6.4899c2.3047,4.2593,6.853,7.1655,12.239,7.1655,5.3485,0,9.8468-2.9063,12.1386-7.1655h-6.464Z"/>
  <path class="cls-1" d="M152.1989,11.0566c-1.4905-1.353-3.4703-2.1796-5.6745-2.1796-2.2419,0-4.2469.8266-5.7491,2.1796h-6.4899c2.3047-4.2593,6.853-7.1655,12.239-7.1655,5.3485,0,9.8468,2.9063,12.1386,7.1655h-6.464Z"/>
  <path class="cls-1" d="M11.04,13.5391c3.5653,0,6.2891.94,8.1702,2.819,1.88,1.8811,2.819,4.7487,2.819,8.6051v14.2679h-4.9651v-13.978c0-1.5123-.2174-2.8125-.6512-3.9039-.4327-1.0936-1.1001-1.9298-2.0001-2.5085-.8989-.5776-2.0391-.8665-3.4215-.8665-1.4473,0-2.6102.2953-3.495.8913-.8849.5939-1.5252,1.4387-1.9276,2.5301-.4024,1.0915-.6025,2.3787-.6025,3.8574v13.978H0v-14.2679c0-3.9212.9562-6.804,2.8676-8.6516,1.9146-1.8497,4.6373-2.7725,8.1724-2.7725"/>
  <path class="cls-1" d="M59.2831,39.2312c-3.5654,0-6.2891-.94-8.1702-2.8189-1.88-1.8811-2.819-4.7487-2.819-8.6051v-14.2679h4.9651v13.9791c0,1.5111.2174,2.8114.6512,3.9028.4327,1.0936,1.1001,1.9298,2.0001,2.5085.8989.5776,2.0391.8665,3.4215.8665,1.4473,0,2.6102-.2953,3.495-.8913.8849-.5939,1.5252-1.4387,1.9276-2.5301.4024-1.0915.6025-2.3787.6025-3.8563v-13.9791h4.9662v14.2679c0,3.9212-.9562,6.804-2.8676,8.6516-1.9146,1.8497-4.6373,2.7724-8.1724,2.7724"/>
  <path class="cls-1" d="M95.5303,19.4596c-.9335-1.9568-2.3214-3.482-4.143-4.5984-1.8432-1.1153-4.0748-1.6615-6.6926-1.6615-2.6405,0-4.871.5463-6.7153,1.6615-1.8216,1.1163-3.2322,2.6415-4.1895,4.5757-.9552,1.9579-1.456,4.2349-1.456,6.83,0,2.5724.4781,4.8255,1.4333,6.8062.9573,1.9579,2.3452,3.4604,4.1668,4.5529,1.8432,1.0698,4.0748,1.6161,6.7153,1.6161,2.6632,0,4.8948-.5463,6.7153-1.6161,1.8205-1.0925,3.1867-2.595,4.143-4.5529.9562-1.9807,1.4116-4.2111,1.4116-6.7607,0-2.5951-.4554-4.8948-1.3889-6.8527M91.251,30.5235c-.5236,1.3208-1.3208,2.3452-2.3906,3.1186-1.0925.7745-2.4815,1.1607-4.2111,1.1607-1.708,0-3.1186-.3862-4.2111-1.1607-1.0925-.7734-1.8898-1.7978-2.3906-3.0959-.4781-1.2743-.7291-2.7086-.7291-4.2793,0-1.5479.251-2.9596.7291-4.2349.5008-1.297,1.2981-2.3214,2.3906-3.1186,1.0925-.7962,2.5031-1.1834,4.2111-1.1834,1.7297,0,3.1186.3873,4.2111,1.1834,1.0698.7972,1.867,1.8216,2.3906,3.1186.5008,1.2753.7507,2.687.7507,4.2349s-.2499,2.9596-.7507,4.2566"/>
  <path class="cls-1" d="M109.5911,39.2312c-3.5654,0-6.2891-.94-8.1702-2.8189-1.88-1.8811-2.819-4.7487-2.819-8.6051v-14.2679h4.9651v13.9791c0,1.5111.2174,2.8114.6512,3.9028.4327,1.0936,1.1001,1.9298,2.0001,2.5085.8989.5776,2.0391.8665,3.4215.8665,1.4474,0,2.6102-.2953,3.495-.8913.8849-.5939,1.5252-1.4387,1.9276-2.5301.4024-1.0915.6025-2.3787.6025-3.8563v-13.9791h4.9662v14.2679c0,3.9212-.9562,6.804-2.8676,8.6516-1.9147,1.8497-4.6373,2.7724-8.1724,2.7724"/>
  <path class="cls-1" d="M35.7342,39.2314c-2.6686,0-4.9002-.5473-6.6991-1.6388-1.8-1.0915-3.1586-2.6102-4.0748-4.5551-.9151-1.9449-1.3738-4.1862-1.3738-6.7251,0-2.5691.4738-4.8353,1.4235-6.7953.9465-1.9612,2.3289-3.5037,4.1451-4.6287,1.814-1.125,4.0089-1.6875,6.579-1.6875,1.9601,0,3.6627.3624,5.11,1.085,1.4452.7226,2.6437,1.6961,3.5902,2.9163.9476,1.2213,1.6475,2.5788,2.0964,4.0727.2261.7496.3873,2.0217.4835,3.3068.1363,1.8184-1.3035,3.3696-3.1273,3.3696h-15.2869c.0974,1.2872.4262,2.4587.9887,3.5188.5625,1.0612,1.3565,1.906,2.3852,2.5301,1.0298.6274,2.2987.94,3.8087.94.8351,0,1.6475-.1017,2.4339-.3126.7875-.2077,1.4939-.5452,2.1212-1.0114.3321-.2466.6123-.5311.8405-.8546.424-.6003,1.1109-.953,1.8454-.953,1.9612,0,3.0494,2.3084,1.7827,3.8066-.119.1406-.2434.278-.3721.41-1.0752,1.1098-2.3787,1.9211-3.9039,2.435-1.5263.5127-3.1251.7712-4.7963.7712M28.6977,23.9986h13.4966c-.0335-1.2515-.3224-2.37-.8675-3.3501-.5463-.9779-1.3024-1.7491-2.2651-2.3116-.9649-.5625-2.1212-.8448-3.4723-.8448-1.4787,0-2.7075.3061-3.6854.9151-.9811.6122-1.7372,1.4073-2.2662,2.3852-.5311.9811-.8448,2.0499-.94,3.2062"/>
  <path class="cls-1" d="M159.0896,13.5391c3.5653,0,6.2891.94,8.1702,2.819,1.88,1.8811,2.819,4.7487,2.819,8.6051v14.2679h-4.9651v-13.978c0-1.5123-.2174-2.8125-.6512-3.9039-.4338-1.0936-1.1001-1.9298-2.0001-2.5085-.8989-.5776-2.0391-.8665-3.4215-.8665-1.4474,0-2.6102.2953-3.495.8913-.8849.5939-1.5252,1.4387-1.9276,2.5301-.4024,1.0915-.6025,2.3787-.6025,3.8574v13.978h-4.9662v-14.2679c0-3.9212.9562-6.804,2.8676-8.6516,1.9147-1.8497,4.6373-2.7725,8.1724-2.7725"/>
  <path class="cls-1" d="M133.4549,39.2309c2.6686,0,4.9002-.5473,6.6991-1.6388,1.8-1.0915,3.1586-2.6102,4.0748-4.5551.9151-1.9449,1.3738-4.1862,1.3738-6.7251,0-2.5691-.4738-4.8353-1.4235-6.7953-.9465-1.9612-2.329-3.5037-4.1451-4.6287-1.814-1.125-4.0089-1.6875-6.579-1.6875-1.9601,0-3.6627.3624-5.11,1.085-1.4452.7226-2.6437,1.6961-3.5902,2.9163-.9476,1.2213-1.6475,2.5788-2.0964,4.0727-.2261.7496-.3873,2.0217-.4835,3.3068-.1363,1.8184,1.3035,3.3696,3.1272,3.3696h15.2869c-.0974,1.2872-.4262,2.4587-.9887,3.5188-.5625,1.0612-1.3565,1.906-2.3852,2.5301-1.0298.6274-2.2987.94-3.8087.94-.8351,0-1.6475-.1017-2.4339-.3126-.7875-.2077-1.4938-.5452-2.1212-1.0114-.3321-.2466-.6123-.5311-.8405-.8546-.424-.6003-1.1109-.953-1.8454-.953-1.9611,0-3.0494,2.3084-1.7827,3.8066.119.1406.2434.278.3721.41,1.0752,1.1098,2.3787,1.9211,3.9039,2.435,1.5263.5127,3.1251.7712,4.7964.7712M140.4915,23.9982h-13.4966c.0335-1.2515.3224-2.37.8675-3.3501.5463-.9779,1.3024-1.7491,2.2651-2.3116.9649-.5625,2.1212-.8448,3.4723-.8448,1.4787,0,2.7075.3061,3.6854.9151.9811.6122,1.7373,1.4073,2.2662,2.3852.5311.9811.8448,2.0499.94,3.2062"/>
  <g>
    <path class="cls-1" d="M2.3972,8.5551V.0883h3.3456c.1647,0,.4056.0118.6234.0471,1.3698.2116,2.0931,1.2759,2.0931,2.6223s-.7292,2.4107-2.0931,2.6223c-.2178.0353-.4646.0471-.6234.0471h-2.299v3.1281h-1.0465ZM3.4437,4.4336h2.2637c.147,0,.3529-.0118.5292-.053.8116-.1822,1.1523-.9173,1.1523-1.6228s-.3408-1.4406-1.1523-1.6228c-.1763-.0412-.3822-.0528-.5292-.0528h-2.2637v3.3515Z"/>
    <path class="cls-1" d="M9.6321,8.5551V2.2051h.9348v1.0054c.1413-.2468.3295-.4646.541-.6175.488-.3938,1.2347-.5114,1.7992-.3879v.9819c-.4409-.1117-1.0113-.0824-1.4522.2409-.6175.4412-.7704,1.1879-.7704,1.9405v3.1867h-1.0525Z"/>
    <path class="cls-1" d="M13.5526,5.3743c0-1.9935,1.1935-3.3458,3.0573-3.3458,1.9052,0,3.0635,1.3819,3.0635,3.3458,0,1.9932-1.176,3.3571-3.0635,3.3571-1.899,0-3.0573-1.3876-3.0573-3.3571ZM18.5619,5.3743c0-1.4288-.6525-2.352-1.952-2.352-1.3286,0-1.9461.9642-1.9461,2.352,0,1.4344.6643,2.3636,1.9461,2.3636,1.3111,0,1.952-.9645,1.952-2.3636Z"/>
    <path class="cls-1" d="M22.4456,8.5551l-2.3047-6.3501h1.0584l1.7814,5.0152,1.7757-5.0152h1.0643l-2.3049,6.3501h-1.0702Z"/>
    <path class="cls-1" d="M26.9943,1.0821V0h1.0465v1.0821h-1.0465ZM26.9943,8.5551V2.2051h1.0465v6.3501h-1.0465Z"/>
    <path class="cls-1" d="M29.7977,8.5551V2.2051h.9408v.8172c.4705-.6291,1.1994-.9819,2.1168-.9819,2.0463,0,2.5283,1.7992,2.5283,3.0045v3.5103h-1.0584v-3.1808c0-1.1938-.3822-2.3402-1.7227-2.3402-1.0525,0-1.7464.7055-1.7464,2.1755v3.3456h-1.0584Z"/>
    <path class="cls-1" d="M36.4981,5.38c.0175-1.9814,1.1289-3.3515,3.0398-3.3515,1.3346,0,2.3695.7058,2.7046,1.8463l-1.035.3117c-.2702-.7348-.9111-1.1642-1.6815-1.1642-1.3052,0-1.9049.9819-1.9168,2.3577.0118,1.4172.6527,2.358,1.9168,2.358.8231,0,1.3701-.3882,1.6581-1.1114l1.0584.2764c-.4468,1.1876-1.4054,1.8285-2.7165,1.8285-1.9346,0-3.0104-1.4051-3.0279-3.3515Z"/>
    <path class="cls-1" d="M43.3864,1.0821V0h1.0465v1.0821h-1.0465ZM43.3864,8.5551V2.2051h1.0465v6.3501h-1.0465Z"/>
    <path class="cls-1" d="M45.8431,6.8384c0-.9997.5938-1.5817,1.558-1.864.7938-.2116,1.9109-.347,2.8516-.4762-.0293-1.0113-.4643-1.4937-1.5639-1.4937-.7704,0-1.3876.3354-1.6169,1.1114l-.9938-.2999c.2999-1.1114,1.1879-1.7876,2.6226-1.7876,1.1464,0,2.0107.4118,2.3752,1.2406.1766.3941.2059.8587.2059,1.3582v3.9278h-.9289v-.9879c-.5058.7763-1.2937,1.1642-2.352,1.1642-1.4228,0-2.1577-.8702-2.1577-1.8931ZM50.135,6.3912c.0883-.3055.1001-.7114.1061-.9994-.8939.1176-1.7523.2175-2.3695.3941-.5233.1645-.9879.4527-.9879,1.0465,0,.5233.3704,1.0231,1.2759,1.0231,1.1289,0,1.8228-.6762,1.9755-1.4643Z"/>
    <path class="cls-1" d="M54.8061,5.3743c0-1.9052,1.0759-3.3458,2.8398-3.3458.7938,0,1.4228.2764,1.8756.7526V.0883h1.0525v8.4668h-.9348v-.7173c-.4646.5585-1.1289.8937-1.9873.8937-1.7757,0-2.8457-1.4522-2.8457-3.3571ZM59.6391,5.3743c0-1.4054-.5879-2.3873-1.8285-2.3873-1.2937,0-1.8934,1.0465-1.8934,2.3873,0,1.3523.6116,2.3989,1.8637,2.3989,1.2818,0,1.8581-1.0056,1.8581-2.3989Z"/>
    <path class="cls-1" d="M61.865,5.4211c0-2.0812,1.211-3.3927,3.0573-3.3927,1.9109,0,3.0282,1.3879,2.934,3.6457h-4.8683c.0821,1.3171.7642,2.0637,1.9343,2.0637.835,0,1.47-.3941,1.8228-1.1173l1.0054.347c-.4999,1.123-1.5523,1.7639-2.7811,1.7639-1.8756,0-3.1044-1.323-3.1044-3.3103ZM63.0055,4.8333h3.763c-.1292-1.2465-.7348-1.864-1.811-1.864-1.1348,0-1.7992.6587-1.952,1.864Z"/>
    <path class="cls-1" d="M69.2766,8.5551V.0883h1.0465v8.4668h-1.0465Z"/>
  </g>
</svg>